<svg width="400" height="400" viewBox="0 0 400 400" fill="none" xmlns="http://www.w3.org/2000/svg">
<rect width="400" height="400" rx="60" fill="#8C76FF"/>
<path d="M219.697 128.447C163.755 124.258 129.391 136.2 119.202 142.695C116.066 143.139 105.832 147.418 89.9787 160.978C70.1618 177.928 63.4079 212.215 70.4238 197.585C77.4396 182.956 122.851 168.437 165.784 157.806C208.717 147.174 244.264 166.374 281.045 155.099C317.827 143.825 320.155 81.8846 315.552 88.5973C310.949 95.3099 289.624 133.683 219.697 128.447Z" fill="white"/>
<path d="M227.277 181.912C171.335 177.724 136.971 189.666 126.782 196.16C123.646 196.605 113.412 200.884 97.5588 214.443C77.7418 231.393 70.9879 265.68 78.0038 251.051C85.0197 236.421 130.431 221.903 173.364 211.271C216.297 200.639 251.844 219.84 288.625 208.565C325.407 197.29 327.735 135.35 323.132 142.063C318.529 148.775 297.204 187.148 227.277 181.912Z" fill="white"/>
<path d="M235.278 238.348C179.336 234.159 144.972 246.101 134.783 252.596C131.648 253.04 121.414 257.319 105.56 270.879C85.743 287.829 78.9891 322.116 86.005 307.486C93.0209 292.857 138.433 278.338 181.365 267.707C224.298 257.075 259.845 276.275 296.627 265C333.408 253.726 335.737 191.786 331.133 198.498C326.53 205.211 305.205 243.584 235.278 238.348Z" fill="white"/>
</svg>
